<mxfile host="65bd71144e">
    <diagram id="R68SOKEH2wR5LUJzxgqq" name="Страница 1">
        <mxGraphModel dx="537" dy="582" grid="1" gridSize="10" guides="1" tooltips="1" connect="1" arrows="1" fold="1" page="1" pageScale="1" pageWidth="827" pageHeight="1169" math="0" shadow="0">
            <root>
                <mxCell id="0"/>
                <mxCell id="1" parent="0"/>
                <mxCell id="2" value="" style="rounded=0;whiteSpace=wrap;fillColor=#1ba1e2;fontColor=#ffffff;strokeColor=#006EAF;" parent="1" vertex="1">
                    <mxGeometry x="354" y="90" width="236" height="60" as="geometry"/>
                </mxCell>
                <mxCell id="3" value="API получает инфомацю из формы " style="rounded=0;whiteSpace=wrap;fillColor=#1ba1e2;fontColor=#ffffff;strokeColor=#006EAF;" parent="1" vertex="1">
                    <mxGeometry x="354" y="190" width="236" height="60" as="geometry"/>
                </mxCell>
                <mxCell id="4" value="API обрабатывает запрос" style="rounded=0;whiteSpace=wrap;fillColor=#1ba1e2;fontColor=#ffffff;strokeColor=#006EAF;" parent="1" vertex="1">
                    <mxGeometry x="354" y="450" width="236" height="60" as="geometry"/>
                </mxCell>
                <mxCell id="5" value="Информация внедряеться в DOM" style="rounded=0;whiteSpace=wrap;fillColor=#1ba1e2;fontColor=#ffffff;strokeColor=#006EAF;" parent="1" vertex="1">
                    <mxGeometry x="354" y="555" width="236" height="60" as="geometry"/>
                </mxCell>
                <mxCell id="6" value="Выполнение" style="rounded=0;whiteSpace=wrap;fillColor=#1ba1e2;fontColor=#ffffff;strokeColor=#006EAF;" parent="1" vertex="1">
                    <mxGeometry x="354" y="660" width="236" height="60" as="geometry"/>
                </mxCell>
                <mxCell id="7" value="Запрос пользователя " style="rounded=0;whiteSpace=wrap;fillColor=#1ba1e2;fontColor=#ffffff;strokeColor=#006EAF;" parent="1" vertex="1">
                    <mxGeometry x="60" y="450" width="236" height="60" as="geometry"/>
                </mxCell>
                <mxCell id="9" value="&#10;Информация записывается в &#10;Базу данных" style="strokeWidth=2;shape=mxgraph.flowchart.database;whiteSpace=wrap;fillColor=#1ba1e2;fontColor=#ffffff;strokeColor=#006EAF;" parent="1" vertex="1">
                    <mxGeometry x="363" y="320" width="218" height="60" as="geometry"/>
                </mxCell>
                <mxCell id="11" value="" style="endArrow=classic;endSize=8;startSize=8;jumpSize=7;strokeWidth=2;" parent="1" edge="1">
                    <mxGeometry width="50" height="50" relative="1" as="geometry">
                        <mxPoint x="471.64" y="150" as="sourcePoint"/>
                        <mxPoint x="472" y="190" as="targetPoint"/>
                    </mxGeometry>
                </mxCell>
                <mxCell id="12" value="" style="endArrow=classic;endSize=8;startSize=8;jumpSize=7;strokeWidth=2;entryX=0.5;entryY=0;entryDx=0;entryDy=0;entryPerimeter=0;" parent="1" target="9" edge="1">
                    <mxGeometry width="50" height="50" relative="1" as="geometry">
                        <mxPoint x="471.64" y="250" as="sourcePoint"/>
                        <mxPoint x="472.0000000000001" y="290" as="targetPoint"/>
                    </mxGeometry>
                </mxCell>
                <mxCell id="13" value="" style="endArrow=classic;endSize=8;startSize=8;jumpSize=7;strokeWidth=2;entryX=0.5;entryY=0;entryDx=0;entryDy=0;" parent="1" target="4" edge="1">
                    <mxGeometry width="50" height="50" relative="1" as="geometry">
                        <mxPoint x="471.64" y="380" as="sourcePoint"/>
                        <mxPoint x="472.0000000000001" y="420" as="targetPoint"/>
                    </mxGeometry>
                </mxCell>
                <mxCell id="14" value="" style="endArrow=classic;endSize=8;startSize=8;jumpSize=7;strokeWidth=2;entryX=0;entryY=0.5;entryDx=0;entryDy=0;" parent="1" target="4" edge="1">
                    <mxGeometry width="50" height="50" relative="1" as="geometry">
                        <mxPoint x="300" y="480" as="sourcePoint"/>
                        <mxPoint x="310.3600000000001" y="500" as="targetPoint"/>
                    </mxGeometry>
                </mxCell>
                <mxCell id="15" value="" style="endArrow=classic;endSize=8;startSize=8;jumpSize=7;strokeWidth=2;entryX=0.5;entryY=0;entryDx=0;entryDy=0;" parent="1" target="5" edge="1">
                    <mxGeometry width="50" height="50" relative="1" as="geometry">
                        <mxPoint x="471.64" y="510" as="sourcePoint"/>
                        <mxPoint x="472.0000000000001" y="550" as="targetPoint"/>
                    </mxGeometry>
                </mxCell>
                <mxCell id="16" value="" style="endArrow=classic;endSize=8;startSize=8;jumpSize=7;strokeWidth=2;entryX=0.5;entryY=0;entryDx=0;entryDy=0;" parent="1" target="6" edge="1">
                    <mxGeometry width="50" height="50" relative="1" as="geometry">
                        <mxPoint x="471.64" y="615" as="sourcePoint"/>
                        <mxPoint x="472.0000000000001" y="655" as="targetPoint"/>
                    </mxGeometry>
                </mxCell>
                <mxCell id="18" value="Форма пользователя" style="text;strokeColor=none;fillColor=none;align=center;verticalAlign=middle;whiteSpace=wrap;rounded=0;" parent="1" vertex="1">
                    <mxGeometry x="442" y="105" width="60" height="30" as="geometry"/>
                </mxCell>
            </root>
        </mxGraphModel>
    </diagram>
</mxfile>